<svg xmlns="http://www.w3.org/2000/svg" viewBox="0 0 50 50">
  <path
    fill="#FFF"
    d="M 2 4 L 2 6 L 48 6 L 48 4 Z M 2 14 L 2 16 L 31 16 L 31 14 Z M 46.875 14 C 46.652344 14.023438 46.441406 14.125 46.28125 14.28125 L 36.28125 24.28125 C 36.085938 24.46875 35.976563 24.730469 35.976563 25 C 35.976563 25.269531 36.085938 25.53125 36.28125 25.71875 L 46.28125 35.71875 C 46.566406 36.015625 47.007813 36.105469 47.386719 35.945313 C 47.765625 35.789063 48.007813 35.410156 48 35 L 48 15 C 48.003906 14.710938 47.878906 14.4375 47.664063 14.246094 C 47.449219 14.054688 47.160156 13.964844 46.875 14 Z M 46 17.4375 L 46 32.5625 L 38.4375 25 Z M 2 24 L 2 26 L 31 26 L 31 24 Z M 2 34 L 2 36 L 31 36 L 31 34 Z M 2 44 L 2 46 L 48 46 L 48 44 Z"/>
</svg>
