<svg xmlns="http://www.w3.org/2000/svg" viewBox="0 0 50 50">
  <path
    fill="#FFF"
    d="M 2 4 L 2 6 L 48 6 L 48 4 Z M 2 14 L 2 16 L 31 16 L 31 14 Z M 36.875 14 C 36.371094 14.0625 35.996094 14.492188 36 15 L 36 35 C 35.992188 35.410156 36.234375 35.789063 36.613281 35.945313 C 36.992188 36.105469 37.433594 36.015625 37.71875 35.71875 L 47.71875 25.71875 C 47.914063 25.53125 48.023438 25.269531 48.023438 25 C 48.023438 24.730469 47.914063 24.46875 47.71875 24.28125 L 37.71875 14.28125 C 37.496094 14.0625 37.183594 13.957031 36.875 14 Z M 38 17.4375 L 45.5625 25 L 38 32.5625 Z M 2 24 L 2 26 L 31 26 L 31 24 Z M 2 34 L 2 36 L 31 36 L 31 34 Z M 2 44 L 2 46 L 48 46 L 48 44 Z"/>
</svg>
