<svg xmlns="http://www.w3.org/2000/svg" viewBox="0 0 50 50">
  <path
    fill="#FFF"
    d="M 32.84375 3.09375 C 32.46875 3.160156 32.167969 3.433594 32.0625 3.796875 C 31.957031 4.164063 32.066406 4.554688 32.34375 4.8125 L 41.53125 14 L 26 14 C 19.652344 14 14.875 15.605469 11.6875 18.46875 C 8.5 21.332031 7 25.40625 7 30 C 7 38.964844 11.15625 45.53125 11.15625 45.53125 C 11.332031 45.863281 11.679688 46.070313 12.054688 46.066406 C 12.429688 46.0625 12.769531 45.847656 12.9375 45.507813 C 13.105469 45.171875 13.066406 44.769531 12.84375 44.46875 C 12.84375 44.46875 9 38.347656 9 30 C 9 25.835938 10.304688 22.417969 13.03125 19.96875 C 15.757813 17.519531 19.992188 16 26 16 L 41.53125 16 L 32.34375 25.1875 C 32.046875 25.429688 31.910156 25.816406 31.996094 26.191406 C 32.082031 26.5625 32.375 26.855469 32.746094 26.941406 C 33.121094 27.027344 33.507813 26.890625 33.75 26.59375 L 44.65625 15.71875 L 45.34375 15 L 44.65625 14.28125 L 33.75 3.40625 C 33.542969 3.183594 33.242188 3.070313 32.9375 3.09375 C 32.90625 3.09375 32.875 3.09375 32.84375 3.09375 Z"/>
</svg>
