<svg xmlns="http://www.w3.org/2000/svg" viewBox="0 0 50 50">
  <path
    fill="#FFF"
    d="M 37 4 C 34.596 4 32.336719 4.9367188 30.636719 6.6367188 L 25.636719 11.636719 C 24.191719 13.081719 23.2985 14.930688 23.0625 16.929688 C 23.0215 17.281688 23 17.64 23 18 C 23 19.368 23.313672 20.686766 23.888672 21.884766 L 25.414062 20.357422 C 25.147062 19.609422 25 18.817 25 18 C 25 16.13 25.728781 14.373781 27.050781 13.050781 L 32.050781 8.0507812 C 33.373781 6.7287812 35.13 6 37 6 C 38.87 6 40.626219 6.7287812 41.949219 8.0507812 C 43.272219 9.3727813 44 11.13 44 13 C 44 14.87 43.271219 16.626219 41.949219 17.949219 L 36.949219 22.949219 C 35.626219 24.271219 33.87 25 32 25 C 31.183 25 30.390578 24.852938 29.642578 24.585938 L 28.115234 26.111328 C 29.313234 26.686328 30.632 27 32 27 C 34.404 27 36.663281 26.063281 38.363281 24.363281 L 43.363281 19.363281 C 45.063281 17.663281 46 15.404 46 13 C 46 10.596 45.063281 8.3367187 43.363281 6.6367188 C 41.663281 4.9367187 39.404 4 37 4 z M 30.980469 17.990234 A 1.0001 1.0001 0 0 0 30.292969 18.292969 L 18.292969 30.292969 A 1.0001 1.0001 0 1 0 19.707031 31.707031 L 31.707031 19.707031 A 1.0001 1.0001 0 0 0 30.980469 17.990234 z M 18 23 C 15.596 23 13.336719 23.936719 11.636719 25.636719 L 6.6367188 30.636719 C 5.0727187 32.199719 4.1545781 34.236828 4.0175781 36.423828 C 4.0055781 36.614828 4 36.807 4 37 C 4 39.404 4.9367188 41.663281 6.6367188 43.363281 C 8.3367187 45.063281 10.596 46 13 46 C 15.404 46 17.663281 45.063281 19.363281 43.363281 L 24.363281 38.363281 C 26.063281 36.663281 27 34.404 27 32 C 27 30.632 26.686328 29.313234 26.111328 28.115234 L 24.585938 29.642578 C 24.852938 30.390578 25 31.183 25 32 C 25 33.87 24.271219 35.626219 22.949219 36.949219 L 17.949219 41.949219 C 16.626219 43.271219 14.87 44 13 44 C 11.13 44 9.3737813 43.271219 8.0507812 41.949219 C 6.7277812 40.627219 6 38.87 6 37 C 6 35.13 6.7287812 33.373781 8.0507812 32.050781 L 13.050781 27.050781 C 14.373781 25.728781 16.13 25 18 25 C 18.817 25 19.609422 25.147062 20.357422 25.414062 L 21.884766 23.888672 C 20.686766 23.313672 19.368 23 18 23 z M 40 30 C 34.859 30 30.591641 33.9325 30.056641 38.9375 C 30.018641 39.2865 30 39.641 30 40 C 30 45.5 34.5 50 40 50 C 45.5 50 50 45.5 50 40 C 50 34.5 45.5 30 40 30 z M 40 32 C 44.4 32 48 35.6 48 40 C 48 44.4 44.4 48 40 48 C 35.6 48 32 44.4 32 40 C 32 35.6 35.6 32 40 32 z M 36.623047 35.476562 C 36.549609 35.46875 36.475391 35.475 36.400391 35.5 L 36.300781 35.5 C 35.800781 35.6 35.4 36.099219 35.5 36.699219 C 35.5 36.899219 35.600781 37.100781 35.800781 37.300781 L 38.599609 40.099609 L 35.800781 42.900391 C 35.400781 43.300391 35.400781 43.900781 35.800781 44.300781 C 36.200781 44.700781 36.799219 44.700781 37.199219 44.300781 L 40 41.5 L 42.800781 44.300781 C 43.200781 44.700781 43.799219 44.700781 44.199219 44.300781 C 44.599219 43.900781 44.599219 43.300391 44.199219 42.900391 L 41.400391 40 L 44.199219 37.199219 C 44.599219 36.799219 44.600781 36.200781 44.300781 35.800781 C 44.100781 35.600781 43.700391 35.4 43.400391 35.5 C 43.200391 35.5 43.000781 35.600781 42.800781 35.800781 L 40 38.599609 L 37.199219 35.800781 C 37.049219 35.650781 36.843359 35.5 36.623047 35.476562 z"/>
</svg>
